<?xml version="1.0" encoding="UTF-8"?>
<svg id="Layer_1" xmlns="http://www.w3.org/2000/svg" version="1.1" viewBox="0 0 1666 544">
  <!-- Generator: Adobe Illustrator 29.2.0, SVG Export Plug-In . SVG Version: 2.1.0 Build 22)  -->
  <defs>
    <style>
      .st0 {
        fill: #929fa7;
      }

      .st1 {
        fill: #4b5762;
      }
    </style>
  </defs>
  <path class="st1" d="M346.91,349.46c4.9,34.3,8.98,45.73,26.13,47.36l-.82,4.9h-99.21l.82-4.9c24.09-1.63,32.25-11.02,28.58-37.56l-7.35-54.71h-93.09l-11.02,19.6c-26.95,48.18-33.89,69-5.31,72.68l-.82,4.9h-68.18l.82-4.9c15.51-3.68,31.44-26.13,59.2-75.53l125.35-221.7h8.98l35.93,249.88ZM209.72,290.66h83.29l-16.33-119.63-66.96,119.63Z"/>
  <path class="st1" d="M385.3,335.57c0-75.13,57.16-152.7,124.94-152.7,32.25,0,49.81,17.15,49.81,40.42l-24.5,24.91h-4.9c4.08-35.11-2.86-54.71-22.86-54.71-38.79,0-78.39,69-78.39,133.92,0,38.79,13.47,53.08,35.93,53.08s42.05-18.37,64.51-45.73l6.53,4.49c-29.8,47.77-58.38,67.37-91.46,67.37-34.71,0-59.61-21.23-59.61-71.04Z"/>
  <path class="st1" d="M725.82,186.14l-18.37,42.05h-4.08c-4.08-1.63-7.35-2.45-12.25-2.45-42.05,0-71.04,84.52-90.64,175.97h-42.05l35.52-169.03c2.04-9.39,4.08-17.96-1.63-17.96-5.31,0-13.07,10.61-25.31,27.76l-6.53-4.08c17.56-34.71,37.56-55.53,59.61-55.53s22.05,22.86,16.74,46.95l-12.25,56.75c20.41-58.38,47.36-103.71,83.7-103.71,5.72,0,11.84.41,17.56,3.27Z"/>
  <path class="st1" d="M880.57,182.87c12.25,9.8,17.15,26.13,17.15,44.51,0,94.32-112.28,269.88-198.02,269.88-10.21,0-24.09-2.86-32.66-10.62l14.29-33.89h4.9c9.8,13.88,21.23,23.68,35.93,23.68,24.91,0,59.2-20.01,59.2-96.77,0-66.96-20.41-159.64-42.87-159.64-6.94,0-10.21,8.17-13.47,29.4l-7.35-2.04c4.08-40.01,12.66-64.51,37.15-64.51,38.38,0,62.06,89.42,62.06,175.16,0,19.6-1.63,34.3-4.08,46.95,32.66-46.14,54.3-100.03,54.3-151.48,0-27.76-6.94-49.4-22.46-61.65v-4.9l35.93-4.08Z"/>
  <path class="st1" d="M910.38,359.66l47.77-224.15c5.31-25.72.82-33.89-12.66-37.56l.82-4.9,62.06-10.61h3.27l-57.98,274.37c-1.22,5.31-4.49,16.74,2.45,16.74,7.35,0,22.86-18.78,33.07-35.11l6.53,4.08c-20.41,38.38-43.69,64.1-66.96,64.1-25.72,0-22.86-27.36-18.37-46.95Z"/>
  <path class="st1" d="M1014.49,359.66l26.95-126.98c2.04-8.98,4.08-17.96-1.63-17.96-5.31,0-13.07,10.61-25.31,27.76l-6.53-4.08c17.56-34.71,37.56-55.53,59.61-55.53s22.05,22.86,17.15,46.95l-26.95,126.98c-1.22,5.72-4.08,16.74,2.45,16.74,7.35,0,21.64-18.37,31.85-34.71l6.53,4.08c-20.82,40.01-43.69,63.69-66.14,63.69-24.09,0-22.46-26.95-17.97-46.95Z"/>
  <path class="st0" d="M1054.91,124.89c0-14.7,11.84-26.54,26.95-26.54s26.54,11.84,26.54,26.54-11.84,26.95-26.54,26.95-26.95-11.84-26.95-26.95Z"/>
  <path class="st1" d="M1323.57,342.92c-20.82,40.01-44.1,63.69-66.14,63.69-23.27,0-23.68-22.45-18.37-46.95l23.68-103.3c5.31-22.46,9.39-43.28-6.94-43.28-30.62,0-82.48,87.37-104.11,188.63h-42.05l35.52-169.03c2.04-8.98,4.08-17.96-1.63-17.96-5.31,0-13.07,10.61-25.31,27.76l-6.53-4.08c17.56-34.71,37.56-55.53,59.61-55.53s22.05,22.86,17.15,46.95l-16.33,74.31c27.77-70.23,65.33-121.26,109.42-121.26,33.48,0,33.48,34.3,23.68,76.76l-22.46,97.18c-2.04,8.57-3.67,16.74,2.45,16.74,7.35,0,21.64-18.37,31.85-34.71l6.53,4.08Z"/>
  <path class="st1" d="M1377.47,298.83c-1.63,9.8-2.45,19.6-2.45,29.4,0,37.97,13.47,52.26,35.52,52.26,23.68,0,46.14-18.78,67.78-45.73l6.53,4.49c-30.21,47.77-61.65,67.37-94.32,67.37-35.11,0-59.61-22.05-59.61-69,0-62.47,43.28-154.74,128.2-154.74,32.66,0,48.59,13.07,48.59,33.07,0,36.75-51.45,59.61-130.25,82.88ZM1380.33,286.58c60.43-21.64,90.64-42.46,90.64-72.67,0-13.07-4.49-20.42-18.37-20.42-28.17,0-60.43,42.46-72.27,93.09Z"/>
  <path class="st0" d="M1495.47,379.67c0-14.7,12.25-26.95,26.95-26.95s26.95,12.25,26.95,26.95-12.25,26.95-26.95,26.95-26.95-12.25-26.95-26.95Z"/>
</svg>