<svg width="72" height="72" viewBox="0 0 72 72" fill="none" xmlns="http://www.w3.org/2000/svg">
<path d="M57.6 57.6C59.5096 57.6 61.3409 58.3586 62.6912 59.7088C64.0414 61.0591 64.8 62.8904 64.8 64.8C64.8 66.7096 64.0414 68.5409 62.6912 69.8912C61.3409 71.2414 59.5096 72 57.6 72C55.6904 72 53.8591 71.2414 52.5088 69.8912C51.1586 68.5409 50.4 66.7096 50.4 64.8C50.4 60.804 53.604 57.6 57.6 57.6ZM0 0H11.772L15.156 7.2H68.4C69.3548 7.2 70.2705 7.57929 70.9456 8.25442C71.6207 8.92955 72 9.84522 72 10.8C72 11.412 71.82 12.024 71.568 12.6L58.68 35.892C57.456 38.088 55.08 39.6 52.38 39.6H25.56L22.32 45.468L22.212 45.9C22.212 46.1387 22.3068 46.3676 22.4756 46.5364C22.6444 46.7052 22.8733 46.8 23.112 46.8H64.8V54H21.6C19.6904 54 17.8591 53.2414 16.5088 51.8912C15.1586 50.5409 14.4 48.7096 14.4 46.8C14.4 45.54 14.724 44.352 15.264 43.344L20.16 34.524L7.2 7.2H0V0ZM21.6 57.6C23.5096 57.6 25.3409 58.3586 26.6912 59.7088C28.0414 61.0591 28.8 62.8904 28.8 64.8C28.8 66.7096 28.0414 68.5409 26.6912 69.8912C25.3409 71.2414 23.5096 72 21.6 72C19.6904 72 17.8591 71.2414 16.5088 69.8912C15.1586 68.5409 14.4 66.7096 14.4 64.8C14.4 60.804 17.604 57.6 21.6 57.6ZM54 32.4L64.008 14.4H18.504L27 32.4H54Z" fill="#4B5762"/>
</svg>
