<svg width="72" height="72" viewBox="0 0 72 72" fill="none" xmlns="http://www.w3.org/2000/svg">
<g clip-path="url(#clip0_1_95)">
<path d="M36 0C16.152 0 0 16.152 0 36C0 55.848 16.152 72 36 72C55.848 72 72 55.848 72 36C72 16.152 55.848 0 36 0ZM36 6C52.605 6 66 19.395 66 36C66.0054 43.1814 63.4295 50.1255 58.7418 55.5659C54.0542 61.0064 47.5673 64.5807 40.464 65.637V44.748H49.008L50.349 36.069H40.464V31.329C40.464 27.729 41.649 24.528 45.018 24.528H50.433V16.956C49.482 16.827 47.469 16.548 43.665 16.548C35.721 16.548 31.065 20.742 31.065 30.3V36.069H22.899V44.748H31.065V65.562C24.0593 64.4089 17.6917 60.8025 13.1001 55.387C8.50844 49.9716 5.99187 43.1 6 36C6 19.395 19.395 6 36 6Z" fill="#4B5762"/>
</g>
<defs>
<clipPath id="clip0_1_95">
<rect width="72" height="72" fill="white"/>
</clipPath>
</defs>
</svg>
