<svg width="86" height="72" viewBox="0 0 86 72" fill="none" xmlns="http://www.w3.org/2000/svg">
<path d="M12.1282 72C8.7595 72 5.89578 70.8211 3.53703 68.4633C1.17901 66.1047 0 63.2413 0 59.8729V29.0037C0 25.6353 1.17901 22.7719 3.53703 20.4133C5.89578 18.0555 8.7595 16.8766 12.1282 16.8766C14.0283 16.8766 15.7696 17.2808 17.3522 18.0893C18.9354 18.8978 20.3096 19.9635 21.4746 21.2865H26.4615V0H68.359V21.2865H73.8718C77.2405 21.2865 80.1042 22.4654 82.463 24.8232C84.821 27.1817 86 30.0452 86 33.4136V67.5901H21.4746C20.3096 68.9131 18.9354 69.9788 17.3522 70.7873C15.7696 71.5958 14.0283 72 12.1282 72ZM12.1282 65.3852C13.6608 65.3852 14.9625 64.8494 16.0335 63.7778C17.1052 62.7069 17.641 61.4053 17.641 59.8729V29.0037C17.641 27.4713 17.1052 26.1697 16.0335 25.0988C14.9625 24.0272 13.6608 23.4914 12.1282 23.4914C10.5956 23.4914 9.29388 24.0272 8.22292 25.0988C7.15123 26.1697 6.61538 27.4713 6.61538 29.0037V59.8729C6.61538 61.4053 7.15123 62.7069 8.22292 63.7778C9.29388 64.8494 10.5956 65.3852 12.1282 65.3852ZM33.0769 21.2865H61.7436V6.61481H33.0769V21.2865ZM24.2564 60.9753H79.3846V33.4136C79.3846 31.8812 78.8488 30.5795 77.7771 29.5087C76.7061 28.4371 75.4044 27.9013 73.8718 27.9013H24.2564V60.9753ZM56.2308 42.2334C57.4803 42.2334 58.5278 41.8107 59.3731 40.9655C60.2184 40.1203 60.641 39.0729 60.641 37.8235C60.641 36.574 60.2184 35.5267 59.3731 34.6814C58.5278 33.8362 57.4803 33.4136 56.2308 33.4136C54.9812 33.4136 53.9338 33.8362 53.0885 34.6814C52.2432 35.5267 51.8205 36.574 51.8205 37.8235C51.8205 39.0729 52.2432 40.1203 53.0885 40.9655C53.9338 41.8107 54.9812 42.2334 56.2308 42.2334ZM69.4615 42.2334C70.7111 42.2334 71.7585 41.8107 72.6038 40.9655C73.4491 40.1203 73.8718 39.0729 73.8718 37.8235C73.8718 36.574 73.4491 35.5267 72.6038 34.6814C71.7585 33.8362 70.7111 33.4136 69.4615 33.4136C68.212 33.4136 67.1645 33.8362 66.3192 34.6814C65.4739 35.5267 65.0513 36.574 65.0513 37.8235C65.0513 39.0729 65.4739 40.1203 66.3192 40.9655C67.1645 41.8107 68.212 42.2334 69.4615 42.2334ZM56.2308 55.463C57.4803 55.463 58.5278 55.0404 59.3731 54.1951C60.2184 53.3499 60.641 52.3026 60.641 51.0531C60.641 49.8036 60.2184 48.7563 59.3731 47.9111C58.5278 47.0658 57.4803 46.6432 56.2308 46.6432C54.9812 46.6432 53.9338 47.0658 53.0885 47.9111C52.2432 48.7563 51.8205 49.8036 51.8205 51.0531C51.8205 52.3026 52.2432 53.3499 53.0885 54.1951C53.9338 55.0404 54.9812 55.463 56.2308 55.463ZM69.4615 55.463C70.7111 55.463 71.7585 55.0404 72.6038 54.1951C73.4491 53.3499 73.8718 52.3026 73.8718 51.0531C73.8718 49.8036 73.4491 48.7563 72.6038 47.9111C71.7585 47.0658 70.7111 46.6432 69.4615 46.6432C68.212 46.6432 67.1645 47.0658 66.3192 47.9111C65.4739 48.7563 65.0513 49.8036 65.0513 51.0531C65.0513 52.3026 65.4739 53.3499 66.3192 54.1951C67.1645 55.0404 68.212 55.463 69.4615 55.463ZM29.7692 55.463H47.4103V33.4136H29.7692V55.463Z" fill="#4B5762"/>
</svg>
