<svg width="73" height="72" viewBox="0 0 73 72" fill="none" xmlns="http://www.w3.org/2000/svg">
<g clip-path="url(#clip0_1_93)">
<path d="M67.1326 0H5.86738C2.628 0 0 2.592 0 5.787V66.213C0 69.408 2.628 72 5.86738 72H67.1326C70.372 72 73 69.408 73 66.213V5.787C73 2.592 70.372 0 67.1326 0ZM67.1326 66.24C26.2709 66.231 5.84 66.222 5.84 66.213C5.84912 25.911 5.85825 5.76 5.86738 5.76C46.7291 5.769 67.16 5.778 67.16 5.787C67.1509 46.089 67.1417 66.24 67.1326 66.24ZM10.8223 26.991H21.6536V61.353H10.8223V26.991ZM16.2425 22.293C19.7009 22.293 22.5205 19.521 22.5205 16.101C22.5205 15.2879 22.3581 14.4827 22.0426 13.7314C21.7271 12.9802 21.2647 12.2976 20.6817 11.7226C20.0988 11.1476 19.4067 10.6915 18.645 10.3803C17.8833 10.0692 17.0669 9.909 16.2425 9.909C15.4181 9.909 14.6017 10.0692 13.84 10.3803C13.0783 10.6915 12.3863 11.1476 11.8033 11.7226C11.2203 12.2976 10.7579 12.9802 10.4424 13.7314C10.1269 14.4827 9.9645 15.2879 9.9645 16.101C9.95537 19.521 12.7659 22.293 16.2425 22.293ZM39.2649 44.352C39.2649 39.87 40.1317 35.532 45.7619 35.532C51.3099 35.532 51.392 40.653 51.392 44.64V61.353H62.2142V42.507C62.2142 33.255 60.1885 26.136 49.2294 26.136C43.9642 26.136 40.4329 28.989 38.982 31.689H38.836V26.991H28.4426V61.353H39.2649V44.352Z" fill="#4B5762"/>
</g>
<defs>
<clipPath id="clip0_1_93">
<rect width="73" height="72" fill="white"/>
</clipPath>
</defs>
</svg>
