<svg width="57" height="72" viewBox="0 0 57 72" fill="none" xmlns="http://www.w3.org/2000/svg">
<path d="M28.5066 35.4716C30.3851 35.4716 31.9911 34.8006 33.3246 33.4585C34.6587 32.1165 35.3258 30.5033 35.3258 28.619C35.3258 26.7346 34.6568 25.1233 33.3189 23.7851C31.981 22.4474 30.3725 21.7786 28.4934 21.7786C26.6149 21.7786 25.0089 22.4496 23.6754 23.7917C22.3413 25.1337 21.6742 26.7473 21.6742 28.6322C21.6742 30.5165 22.3432 32.1275 23.6811 33.4652C25.019 34.8028 26.6275 35.4716 28.5066 35.4716ZM28.5 64.44C35.8868 57.8067 41.5395 51.4442 45.4582 45.3525C49.3769 39.2608 51.3362 33.9254 51.3362 29.3462C51.3362 22.4414 49.1494 16.7651 44.7757 12.3172C40.4021 7.86933 34.9768 5.64539 28.5 5.64539C22.0232 5.64539 16.5979 7.86933 12.2243 12.3172C7.85059 16.7651 5.66375 22.4414 5.66375 29.3462C5.66375 33.9254 7.6231 39.2608 11.5418 45.3525C15.4605 51.4442 21.1132 57.8067 28.5 64.44ZM28.5 72C18.9975 63.7405 11.8719 56.054 7.12311 48.9403C2.37437 41.8259 0 35.2946 0 29.3462C0 20.6057 2.81835 13.5295 8.45504 8.11773C14.0924 2.70591 20.774 0 28.5 0C36.226 0 42.9076 2.70591 48.545 8.11773C54.1817 13.5295 57 20.6057 57 29.3462C57 35.2946 54.6256 41.8259 49.8769 48.9403C45.1281 56.054 38.0025 63.7405 28.5 72Z" fill="#4B5762"/>
</svg>
