<svg width="75" height="72" viewBox="0 0 75 72" fill="none" xmlns="http://www.w3.org/2000/svg">
<path d="M70.3246 72C62.0107 72 53.6581 70.1442 45.2669 66.4327C36.8765 62.7212 29.1673 57.4856 22.1393 50.7261C15.1121 43.9659 9.66544 36.5647 5.79926 28.5226C1.93309 20.4812 0 12.4698 0 4.48835C0 3.20577 0.441176 2.13706 1.32353 1.28223C2.20588 0.42741 3.30882 0 4.63235 0H19.0213C20.1353 0 21.118 0.34906 21.9695 1.04718C22.821 1.74459 23.3625 2.60647 23.5941 3.63282L26.1232 16.0941C26.2982 17.2504 26.2614 18.2439 26.0129 19.0747C25.7636 19.9055 25.3165 20.6033 24.6717 21.168L14.4827 30.69C16.1224 33.5728 17.996 36.3 20.1033 38.8715C22.2099 41.4424 24.4908 43.8978 26.946 46.2378C29.3665 48.5622 31.9401 50.7208 34.6665 52.7135C37.393 54.7062 40.3371 56.5606 43.4989 58.2766L53.3989 48.69C54.0893 48.0004 54.9254 47.5168 55.907 47.2394C56.8879 46.9627 57.9074 46.8949 58.9654 47.0361L71.2158 49.4312C72.3298 49.7135 73.239 50.2592 73.9434 51.0681C74.6478 51.8771 75 52.7947 75 53.8211V67.5529C75 68.8235 74.5548 69.8824 73.6643 70.7294C72.7739 71.5765 71.6607 72 70.3246 72ZM11.3515 24.6791L19.2254 17.4462C19.3665 17.3375 19.4585 17.1882 19.5011 16.9984C19.5437 16.8085 19.5368 16.632 19.4801 16.4689L17.5621 7.00412C17.5055 6.78741 17.4066 6.6247 17.2654 6.516C17.1243 6.40729 16.9404 6.35294 16.714 6.35294H7.27941C7.10956 6.35294 6.96801 6.40729 6.85478 6.516C6.74228 6.6247 6.68603 6.76059 6.68603 6.92365C6.91176 9.81777 7.40515 12.7578 8.16618 15.7436C8.92647 18.7302 9.98824 21.7087 11.3515 24.6791ZM49.7338 61.2815C52.6581 62.5902 55.7081 63.5908 58.8838 64.2833C62.0603 64.9751 65.0283 65.3862 67.7879 65.5168C67.9577 65.5168 68.0993 65.4625 68.2125 65.3538C68.3257 65.2451 68.3824 65.1092 68.3824 64.9461V56.0361C68.3824 55.8187 68.3257 55.6422 68.2125 55.5067C68.0993 55.3712 67.9298 55.2762 67.704 55.2219L58.4393 53.4134C58.2695 53.3591 58.121 53.3524 57.9938 53.3933C57.8665 53.4342 57.732 53.5225 57.5901 53.658L49.7338 61.2815Z" fill="#4B5762"/>
</svg>
