<svg width="70" height="72" viewBox="0 0 70 72" fill="none" xmlns="http://www.w3.org/2000/svg">
<path d="M64.5556 72L40.0556 46.8C38.1111 48.4 35.875 49.6667 33.3472 50.6C30.8194 51.5333 28.1296 52 25.2778 52C18.213 52 12.2338 49.4833 7.34028 44.45C2.44676 39.4167 0 33.2667 0 26C0 18.7333 2.44676 12.5833 7.34028 7.55C12.2338 2.51667 18.213 0 25.2778 0C32.3426 0 38.3218 2.51667 43.2153 7.55C48.1088 12.5833 50.5556 18.7333 50.5556 26C50.5556 28.9333 50.1019 31.7 49.1944 34.3C48.287 36.9 47.0556 39.2 45.5 41.2L70 66.4L64.5556 72ZM25.2778 44C30.1389 44 34.2708 42.25 37.6736 38.75C41.0764 35.25 42.7778 31 42.7778 26C42.7778 21 41.0764 16.75 37.6736 13.25C34.2708 9.75 30.1389 8 25.2778 8C20.4167 8 16.2847 9.75 12.8819 13.25C9.47917 16.75 7.77778 21 7.77778 26C7.77778 31 9.47917 35.25 12.8819 38.75C16.2847 42.25 20.4167 44 25.2778 44Z" fill="#4B5762"/>
</svg>
